<?xml version="1.0" encoding="UTF-8"?>
<svg width="47px" height="47px" viewBox="0 0 47 47" version="1.1" xmlns="http://www.w3.org/2000/svg" xmlns:xlink="http://www.w3.org/1999/xlink">
    <title>FLIGTH</title>
    <g id="Almosafer-UI" stroke="none" stroke-width="1" fill="none" fill-rule="evenodd">
        <g id="Artboard" transform="translate(-113.000000, -176.000000)">
            <g id="FLIGTH" transform="translate(114.000000, 177.000000)">
                <polygon id="Path" stroke="#FFFFFF" stroke-width="1.63636364" fill="#FFFFFF" fill-rule="nonzero" stroke-linejoin="round" points="24.5863636 25.8627273 30.1786364 31.4590909 37.6077273 44.9509091 40.9704545 44.9509091 33.8359091 16.6131818"></polygon>
                <path d="M44.4927273,0.486818182 C42.9872727,-1.01863636 37.7918182,1.71409091 36.3109091,3.22363636 L28.4031818,11.1068182 L0.0695454545,3.97636364 L0.0695454545,7.33909091 L13.5695455,14.7681818 L19.1536364,20.3604545 L13.0663636,26.4436364 C12.7595455,26.7545455 12.2481818,27.3436364 11.6386364,28.1086364 L11.6386364,28.1086364 L1.68954545,26.82 L0.495,29.4545455 L7.65818182,33.7540909 L7.65818182,33.7540909 C6.21409091,36.1268182 5.25272727,38.3154545 5.96454545,39.0272727 C6.67636364,39.7390909 8.865,38.7736364 11.2377273,37.3295455 L11.2377273,37.3295455 L15.5454545,44.4886364 L18.1759091,43.29 L16.875,33.3409091 L16.875,33.3409091 C17.64,32.7272727 18.2290909,32.22 18.54,31.9090909 L41.7640909,8.685 C43.2613636,7.18772727 45.9981818,1.99227273 44.4927273,0.486818182 Z" id="Path" stroke="#FFFFFF" stroke-width="1.63636364" fill="#FFFFFF" fill-rule="nonzero" stroke-linejoin="round"></path>
                <path d="M43.1713636,0.458181818 C43.5437493,0.423326137 43.9146924,0.538141851 44.2022727,0.777272727 C44.7218182,1.29272727 44.6113636,2.66318182 43.875,4.43454545 C43.3027225,5.88347166 42.4894272,7.22513231 41.4695455,8.40272727 L18.2495455,31.6227273 C16.7359091,33.1363636 9.17590909,38.8636364 6.67636364,38.8636364 C6.53039979,38.8724447 6.38587753,38.8305332 6.26727273,38.745 C5.88681818,38.3645455 6.26727273,36.6259091 8.65636364,32.9686364 C10.0655711,30.7771227 11.6425695,28.6981657 13.3731818,26.7504545 L36.5931818,3.52636364 C37.8204545,2.32363636 41.2322727,0.474545455 43.1877273,0.474545455 M43.1877273,0.0654545455 C41.0359091,0.0654545455 37.5013636,2.04136364 36.3068182,3.24 L13.0663636,26.4436364 C11.43,28.08 4.34045455,37.395 5.96454545,39.0190909 C6.160123,39.1909186 6.41680497,39.2764793 6.67636364,39.2563636 C9.39681818,39.2563636 17.0754545,33.3736364 18.54,31.8927273 L41.7640909,8.66863636 C43.2654545,7.16727273 46.0022727,1.97181818 44.4968182,0.486818182 C44.1321945,0.170829052 43.6566172,0.0132848664 43.1754545,0.0490909091 L43.1877273,0.0654545455 Z" id="Shape" fill="#0086ff" fill-rule="nonzero"></path>
                <polyline id="Path" stroke="#0086ff" stroke-width="0.5" stroke-linecap="round" stroke-linejoin="round" points="28.4031818 11.1109091 0.0695454545 3.97636364 0.0695454545 7.33909091 13.5613636 14.7681818 19.1536364 20.3604545"></polyline>
                <polyline id="Path" stroke="#0086ff" stroke-width="0.5" stroke-linecap="round" stroke-linejoin="round" points="33.8359091 16.6131818 40.9704545 44.9509091 37.6077273 44.9509091 30.1786364 31.4590909 24.5863636 25.8627273"></polyline>
                <polyline id="Path" stroke="#0086ff" stroke-width="0.5" fill="#0086ff" fill-rule="nonzero" stroke-linecap="round" stroke-linejoin="round" points="16.875 33.3409091 18.1636364 43.29 15.5331818 44.4886364 11.2336364 37.3213636"></polyline>
                <polyline id="Path" stroke="#0086ff" stroke-width="0.5" fill="#0086ff" fill-rule="nonzero" stroke-linecap="round" stroke-linejoin="round" points="11.6386364 28.1045455 1.68954545 26.8159091 0.495 29.4463636 7.65818182 33.7459091"></polyline>
                <path d="M6.68045455,39.0518182 C6.47329175,39.0695709 6.26748815,39.0048898 6.10772727,38.8718182 C5.82545455,38.5895455 5.49,37.4359091 8.46818182,32.8418182 C9.88715134,30.6394255 11.4736625,28.5496074 13.2136364,26.5909091 L36.4336364,3.37090909 C37.6609091,2.14363636 41.1709091,0.257727273 43.1713636,0.257727273 C43.5982051,0.224214851 44.0211796,0.359331715 44.3495455,0.634090909 C45.7077273,1.99636364 43.1222727,7.05681818 41.6127273,8.55 L18.4090909,31.7659091 C16.9977273,33.1772727 9.35590909,39.0518182 6.69681818,39.0518182 L6.68045455,39.0518182 Z" id="Path" fill="#FFFFFF" fill-rule="nonzero"></path>
                <path d="M43.1713636,0.458181818 C43.5437493,0.423326137 43.9146924,0.538141851 44.2022727,0.777272727 C44.7218182,1.29272727 44.6113636,2.66318182 43.875,4.43454545 C43.3027225,5.88347166 42.4894272,7.22513231 41.4695455,8.40272727 L18.2495455,31.6227273 C16.7359091,33.1363636 9.17590909,38.8636364 6.67636364,38.8636364 C6.53039979,38.8724447 6.38587753,38.8305332 6.26727273,38.745 C5.88681818,38.3645455 6.26727273,36.6259091 8.65636364,32.9686364 C10.0655711,30.7771227 11.6425695,28.6981657 13.3731818,26.7504545 L36.5931818,3.52636364 C37.8204545,2.32363636 41.2322727,0.474545455 43.1877273,0.474545455 M43.1877273,0.0654545455 C41.0359091,0.0654545455 37.5013636,2.04136364 36.3068182,3.24 L13.0663636,26.4436364 C11.43,28.08 4.34045455,37.395 5.96454545,39.0190909 C6.160123,39.1909186 6.41680497,39.2764793 6.67636364,39.2563636 C9.39681818,39.2563636 17.0754545,33.3736364 18.54,31.8927273 L41.7640909,8.66863636 C43.2654545,7.16727273 46.0022727,1.97181818 44.4968182,0.486818182 C44.1321945,0.170829052 43.6566172,0.0132848664 43.1754545,0.0490909091 L43.1877273,0.0654545455 Z" id="Shape" fill="#0086ff" fill-rule="nonzero"></path>
                <path d="M15.345,27.1390909 L38.8636364,3.62863636 C39.8168182,2.67954545 42.2222727,1.24363636 44.2677273,0.666818182 C42.5209091,-0.351818182 37.8695455,2.19681818 36.4581818,3.60818182 L13.4590909,26.5172727 C11.8513636,28.125 4.86818182,37.4072727 6.32863636,38.8145455 C6.61909091,39.0968182 7.31045455,38.745 7.99363636,38.565 C8.07954545,35.7545455 13.8763636,28.6036364 15.345,27.1390909 Z" id="Path" fill="#0086ff" fill-rule="nonzero"></path>
                <line x1="29.9086364" y1="29.0372727" x2="30.1745455" y2="28.755" id="Path" stroke="#0086ff" stroke-width="0.5" fill="#0086ff" fill-rule="nonzero" stroke-linecap="round" stroke-linejoin="round"></line>
                <line x1="29.0863636" y1="28.2027273" x2="29.3563636" y2="27.9204545" id="Path" stroke="#0086ff" stroke-width="0.5" fill="#0086ff" fill-rule="nonzero" stroke-linecap="round" stroke-linejoin="round"></line>
                <line x1="28.2681818" y1="27.3722727" x2="28.5340909" y2="27.09" id="Path" stroke="#0086ff" stroke-width="0.5" fill="#0086ff" fill-rule="nonzero" stroke-linecap="round" stroke-linejoin="round"></line>
                <line x1="27.45" y1="26.5377273" x2="27.7159091" y2="26.2554545" id="Path" stroke="#0086ff" stroke-width="0.5" fill="#0086ff" fill-rule="nonzero" stroke-linecap="round" stroke-linejoin="round"></line>
                <line x1="26.6318182" y1="25.7031818" x2="26.8977273" y2="25.425" id="Path" stroke="#0086ff" stroke-width="0.5" fill="#0086ff" fill-rule="nonzero" stroke-linecap="round" stroke-linejoin="round"></line>
                <line x1="19.2804545" y1="18.4213636" x2="19.5463636" y2="18.1390909" id="Path" stroke="#0086ff" stroke-width="0.5" fill="#0086ff" fill-rule="nonzero" stroke-linecap="round" stroke-linejoin="round"></line>
                <line x1="18.4581818" y1="17.5868182" x2="18.7281818" y2="17.3045455" id="Path" stroke="#0086ff" stroke-width="0.5" fill="#0086ff" fill-rule="nonzero" stroke-linecap="round" stroke-linejoin="round"></line>
                <line x1="17.64" y1="16.7522727" x2="17.9059091" y2="16.4740909" id="Path" stroke="#0086ff" stroke-width="0.5" fill="#0086ff" fill-rule="nonzero" stroke-linecap="round" stroke-linejoin="round"></line>
                <line x1="16.8218182" y1="15.9218182" x2="17.0877273" y2="15.6395455" id="Path" stroke="#0086ff" stroke-width="0.5" fill="#0086ff" fill-rule="nonzero" stroke-linecap="round" stroke-linejoin="round"></line>
                <line x1="16.0036364" y1="15.0872727" x2="16.2695455" y2="14.805" id="Path" stroke="#0086ff" stroke-width="0.5" fill="#0086ff" fill-rule="nonzero" stroke-linecap="round" stroke-linejoin="round"></line>
                <line x1="36.2822727" y1="32.9236364" x2="35.9018182" y2="31.4181818" id="Path" stroke="#0086ff" stroke-width="0.5" stroke-linecap="round" stroke-linejoin="round"></line>
                <line x1="35.4886364" y1="29.7777273" x2="32.7763636" y2="19.0227273" id="Path" stroke="#0086ff" stroke-width="0.5" stroke-linecap="round" stroke-linejoin="round"></line>
            </g>
        </g>
    </g>
</svg>