<?xml version="1.0" encoding="UTF-8"?>
<svg width="60px" height="52px" viewBox="0 0 60 52" version="1.1" xmlns="http://www.w3.org/2000/svg" xmlns:xlink="http://www.w3.org/1999/xlink">
    <title>TICKET</title>
    <g id="Almosafer-UI" stroke="none" stroke-width="1" fill="none" fill-rule="evenodd">
        <g id="Artboard" transform="translate(-712.000000, -170.000000)" fill-rule="nonzero">
            <g id="TICKET" transform="translate(713.000000, 171.000000)">
                <path d="M57.4948387,26.1140323 L56.0916129,21.2635484 C56.0573959,21.1879803 55.9978283,21.126758 55.9232258,21.0904839 C55.8487248,21.0576561 55.7638559,21.0576561 55.6893548,21.0904839 C54.3121438,21.5422259 52.7982211,21.208711 51.7383226,20.2200775 C50.6784241,19.231444 50.2405092,17.744358 50.5954532,16.3390837 C50.9503973,14.9338094 52.0419532,13.833037 53.4441935,13.4662903 C53.5503769,13.4471082 53.6445948,13.3865395 53.706129,13.2979032 C53.7401584,13.2236598 53.7401584,13.1382757 53.706129,13.0640323 L52.5320968,8.88709677 C51.8687864,6.58957836 49.470595,5.26283023 47.1717742,5.9216129 L3.47064516,18.4851613 C2.36510409,18.8036248 1.43145235,19.5484066 0.875256605,20.5555244 C0.319060863,21.5626423 0.185924676,22.7495206 0.50516129,23.8548387 C1.21612903,25.8053226 2.08612903,29.5145161 1.78677419,31.6006452 C1.80105291,31.7428142 1.91986738,31.8515596 2.06274194,31.8532258 C3.73422398,31.8987834 5.19998557,32.9817665 5.73451613,34.566129 L5.86548387,34.9543548 L5.54741935,35.2069355 C5.16588348,35.5152408 4.72943775,35.7485409 4.26112903,35.8945161 C4.11580654,35.9435746 4.03381467,36.0973094 4.07403226,36.2453226 L4.77096774,38.6682258 L4.4716129,38.9114516 C3.79175788,39.4706978 2.94290877,39.7838655 2.06274194,39.8001613 C1.90699228,39.8027149 1.78207584,39.9297133 1.78209677,40.0854839 L1.78209677,45.1370968 C1.78725012,47.5263069 3.72417281,49.4611379 6.1133871,49.4637097 L51.5919355,49.4637097 C53.9803892,49.4611317 55.9159705,47.5255505 55.9185484,45.1370968 L55.9185484,40.0854839 C55.9066806,40.0020455 55.8651713,39.9256682 55.8016129,39.8703226 C55.7427745,39.8147911 55.6619035,39.7889812 55.5817742,39.8001613 L55.5817742,39.8001613 C54.1613553,39.8076812 52.8448224,39.0568454 52.1281006,37.8304865 C51.4113787,36.6041276 51.4033551,35.0885588 52.1070522,33.85468 C52.8107492,32.6208013 54.1192586,31.8560682 55.5396774,31.8485484 C55.64555,31.856719 55.7506533,31.8250212 55.8343548,31.7596774 C55.8955556,31.7035082 55.9281989,31.622759 55.9232258,31.5398387 L55.9232258,30.8008065 L56.1337097,30.6277419 C57.4318994,29.5213626 57.9655789,27.7594892 57.4995161,26.1187097 L57.4948387,26.1140323 Z" id="Path" stroke="#FFFFFF" stroke-width="1.87096774" fill="#FFFFFF"></path>
                <path d="M53.4909677,7.01612903 L55.8717742,5.79064516 C55.9674436,5.7426771 56.0839066,5.78011162 56.1337097,5.87483871 C56.1812797,5.96914474 56.1436375,6.08416247 56.0495161,6.13209677 L53.6687097,7.36225806 L53.6312903,7.36225806 C53.5381131,7.38029181 53.445366,7.32913507 53.4109122,7.24070347 C53.3764583,7.15227187 53.41015,7.05185329 53.4909677,7.00209677 L53.4909677,7.01612903 Z" id="Path" stroke="#FFFFFF" stroke-width="1.87096774" fill="#FFFFFF"></path>
                <path d="M52.9858065,2.30129032 C53.0156458,2.26021826 53.0608945,2.23303521 53.1111688,2.22597916 C53.1614432,2.21892311 53.2124266,2.2325999 53.2524194,2.26387097 C53.2942164,2.29298914 53.3223338,2.33789088 53.3302785,2.38820731 C53.3382232,2.43852373 53.3253083,2.48990425 53.2945161,2.53048387 L51.708871,4.67741935 C51.6827019,4.71307477 51.6444702,4.73800849 51.6012903,4.74758065 C51.5445837,4.76223891 51.4842874,4.75017965 51.4375806,4.71483871 C51.3965086,4.68499939 51.3693255,4.63975069 51.3622695,4.58947633 C51.3552134,4.53920196 51.3688902,4.48821855 51.4001613,4.44822581 L52.9858065,2.30129032 Z" id="Path" stroke="#FFFFFF" stroke-width="1.87096774" fill="#FFFFFF"></path>
                <path d="M48.2101613,3.22741935 L48.7714516,0.575322581 C48.7947943,0.471654284 48.8963396,0.405339014 49.0006452,0.425645161 C49.1039759,0.448894568 49.1688946,0.551508015 49.1456452,0.65483871 L48.5843548,3.30693548 C48.5686901,3.37624324 48.5168204,3.43169017 48.4487097,3.45193548 C48.4198162,3.46123748 48.3887321,3.46123748 48.3598387,3.45193548 C48.3097183,3.44295017 48.2654252,3.41392488 48.2371801,3.37155733 C48.2089351,3.32918978 48.1991783,3.27714024 48.2101613,3.22741935 L48.2101613,3.22741935 Z" id="Path" stroke="#FFFFFF" stroke-width="1.87096774" fill="#FFFFFF"></path>
                <line x1="53.5845161" y1="7.18919355" x2="55.9653226" y2="5.96370968" id="Path" stroke="#02647A" stroke-width="0.5" fill="#FFFFFF" stroke-linecap="round" stroke-linejoin="round"></line>
                <line x1="51.5545161" y1="4.55112903" x2="53.1448387" y2="2.41822581" id="Path" stroke="#02647A" stroke-width="0.5" fill="#FFFFFF" stroke-linecap="round" stroke-linejoin="round"></line>
                <line x1="48.4019355" y1="3.26483871" x2="48.9632258" y2="0.612741935" id="Path" stroke="#02647A" stroke-width="0.5" fill="#FFFFFF" stroke-linecap="round" stroke-linejoin="round"></line>
                <path d="M2.14693548,40.1509677 L2.03467742,45.3429032 C2.03467742,45.3429032 2.55387097,48.6170968 5.55677419,49.2251613 L50.8248387,49.2251613 C50.8248387,49.2251613 54.955,49.5853226 55.6987097,45.6375806 L55.6987097,40.2632258 C55.6987097,40.2632258 51.998871,39.8796774 51.4329032,36.8767742 C51.4329032,36.8767742 50.2167742,32.4940323 55.0906452,31.2966129 C55.0906452,31.2966129 57.5603226,29.4256452 57.3264516,27.0869355 L55.8156452,21.4740323 C55.8156452,21.4740323 51.4329032,22.2645161 50.4179032,18.1530645 C49.4029032,14.0416129 53.3974194,13.0967742 53.3974194,13.0967742 L52.1579032,8.58306452 C52.1579032,8.58306452 50.8248387,5.14983871 47.0969355,6.2116129 L27.5687097,11.8245161 L6.41741935,17.9332258 C6.41741935,17.9332258 0.336774194,18.1577419 0.636129032,23.0129032 L1.67451613,27.2225806 C1.93560531,28.6002493 2.07956049,29.9975534 2.10483871,31.3995161 C2.10483871,31.3995161 5.64564516,31.9841935 6.2116129,34.9216129 L4.34064516,36.161129 L5.01887097,38.7337097 C4.1972861,39.4421075 3.2089737,39.9298252 2.14693548,40.1509677 L2.14693548,40.1509677 Z" id="Path" fill="#FFFFFF"></path>
                <path d="M57.4948387,26.1140323 L56.0916129,21.2635484 C56.0573959,21.1879803 55.9978283,21.126758 55.9232258,21.0904839 C55.8487248,21.0576561 55.7638559,21.0576561 55.6893548,21.0904839 C54.3121438,21.5422259 52.7982211,21.208711 51.7383226,20.2200775 C50.6784241,19.231444 50.2405092,17.744358 50.5954532,16.3390837 C50.9503973,14.9338094 52.0419532,13.833037 53.4441935,13.4662903 C53.5503769,13.4471082 53.6445948,13.3865395 53.706129,13.2979032 C53.7401584,13.2236598 53.7401584,13.1382757 53.706129,13.0640323 L52.5320968,8.88709677 C51.8687864,6.58957836 49.470595,5.26283023 47.1717742,5.9216129 L3.47064516,18.4851613 C2.36510409,18.8036248 1.43145235,19.5484066 0.875256605,20.5555244 C0.319060863,21.5626423 0.185924676,22.7495206 0.50516129,23.8548387 C1.21612903,25.8053226 2.08612903,29.5145161 1.78677419,31.6006452 C1.80105291,31.7428142 1.91986738,31.8515596 2.06274194,31.8532258 C3.73422398,31.8987834 5.19998557,32.9817665 5.73451613,34.566129 L5.86548387,34.9543548 L5.54741935,35.2069355 C5.16588348,35.5152408 4.72943775,35.7485409 4.26112903,35.8945161 C4.11580654,35.9435746 4.03381467,36.0973094 4.07403226,36.2453226 L4.77096774,38.6682258 L4.4716129,38.9114516 C3.79175788,39.4706978 2.94290877,39.7838655 2.06274194,39.8001613 C1.90699228,39.8027149 1.78207584,39.9297133 1.78209677,40.0854839 L1.78209677,45.1370968 C1.78725012,47.5263069 3.72417281,49.4611379 6.1133871,49.4637097 L51.5919355,49.4637097 C53.9803892,49.4611317 55.9159705,47.5255505 55.9185484,45.1370968 L55.9185484,40.0854839 C55.9066806,40.0020455 55.8651713,39.9256682 55.8016129,39.8703226 C55.7427745,39.8147911 55.6619035,39.7889812 55.5817742,39.8001613 L55.5817742,39.8001613 C54.1613553,39.8076812 52.8448224,39.0568454 52.1281006,37.8304865 C51.4113787,36.6041276 51.4033551,35.0885588 52.1070522,33.85468 C52.8107492,32.6208013 54.1192586,31.8560682 55.5396774,31.8485484 C55.64555,31.856719 55.7506533,31.8250212 55.8343548,31.7596774 C55.8955556,31.7035082 55.9281989,31.622759 55.9232258,31.5398387 L55.9232258,30.8008065 L56.1337097,30.6277419 C57.4318994,29.5213626 57.9655789,27.7594892 57.4995161,26.1187097 L57.4948387,26.1140323 Z M5.80935484,33.4014516 C5.13716511,32.3277537 4.04984645,31.5808573 2.80645161,31.3387097 L2.33870968,31.2451613 L2.33870968,28.13 L2.9,28.1066129 C4.18392249,28.0691106 5.40771908,28.6505898 6.18962011,29.6696551 C6.97152115,30.6887204 7.21635405,32.0213318 6.84774194,33.2517742 L6.47354839,34.453871 L5.80935484,33.4014516 Z M51.7229032,33.35 C50.8842743,34.6442368 50.7596987,36.275604 51.3920869,37.6821716 C52.0244752,39.0887392 53.3274122,40.0783014 54.8520968,40.31 L55.3525806,40.3848387 L55.3525806,45.1277419 C55.3371774,47.1970648 53.6566367,48.8671673 51.5872581,48.8696774 L6.1133871,48.8696774 C4.05208331,48.8569136 2.38421547,47.1890457 2.37145161,45.1277419 L2.37145161,40.3708065 L2.83919355,40.2772581 C3.36263241,40.1789179 3.86458926,39.9889027 4.32193548,39.7159677 L4.97209677,39.3183871 L5.48193548,41.091129 C6.14530099,43.3862833 8.54024769,44.7123935 10.8375806,44.0566129 L52.5882258,32.0356452 L51.7229032,33.35 Z M31.956129,37.3819355 L30.2208065,31.3387097 L34.4632258,30.1179032 L36.1985484,36.1564516 L31.956129,37.3819355 Z M56.6248387,29.1356452 C56.140435,29.992828 55.3449404,30.6308985 54.4030645,30.9177419 L40.8385484,34.8327419 L40.5812903,33.9346774 C40.557092,33.832068 40.4782849,33.7511637 40.3763462,33.7242793 C40.2744076,33.6973949 40.1659515,33.728912 40.0942974,33.8062422 C40.0226434,33.8835723 39.9994696,33.9941121 40.0340323,34.0937097 L40.2912903,34.9870968 L36.7458065,36.016129 L34.9309677,29.7062903 C34.9093442,29.6334835 34.8608548,29.5716178 34.7953226,29.5332258 C34.7262556,29.5056355 34.6492283,29.5056355 34.5801613,29.5332258 L29.7904839,30.9364516 C29.7167466,30.956244 29.6542554,31.0052235 29.6174194,31.0720968 C29.5920274,31.1415698 29.5920274,31.2177851 29.6174194,31.2872581 L31.4322581,37.5970968 L10.6691935,43.5 C10.3300016,43.5968953 9.97888872,43.6457047 9.62612903,43.6450075 C7.95196219,43.6387743 6.48192808,42.5305361 6.01516129,40.9227419 L4.70080645,36.3529032 L5.13112903,36.1330645 C7.02889021,35.1218039 7.95736203,32.9182479 7.35555897,30.8537919 C6.7537559,28.7893358 4.78663714,27.4298643 2.64274194,27.5967742 L2.175,27.5967742 L1.05241935,23.6864516 C0.764080356,22.7249292 0.874158767,21.6878756 1.35792087,20.8083081 C1.84168298,19.9287406 2.6585577,19.2804249 3.625,19.0090323 L33.2096774,10.5148387 L33.4669355,11.4082258 C33.5100568,11.5566517 33.6635228,11.6437541 33.8130645,11.6046774 C33.8873123,11.5859159 33.950172,11.5366475 33.986129,11.4690323 C34.0152394,11.4002657 34.0152394,11.3226375 33.986129,11.253871 L33.728871,10.3558065 L47.2933871,6.45483871 C48.2517749,6.17371295 49.2827776,6.28739218 50.1568924,6.77057127 C51.0310073,7.25375035 51.675685,8.06632659 51.9474194,9.02741935 L53.0746774,12.9377419 L52.6069355,13.1482258 C50.5595224,14.0817579 49.5043373,16.3737223 50.1263808,18.5362312 C50.7484242,20.69874 52.8601365,22.0797496 55.0906452,21.7827419 L55.591129,21.7172581 L56.9008065,26.2730645 C57.1937995,27.2259241 57.0944652,28.2563061 56.6248387,29.1356452 Z" id="Shape" fill="#0086ff"></path>
                <path d="M35.8196774,17.4748387 L35.1835484,15.2624194 C35.1639546,15.1892897 35.1156456,15.1271785 35.049589,15.0901867 C34.9835323,15.053195 34.9053321,15.0444611 34.8327419,15.0659677 C34.6819955,15.1090661 34.5942667,15.2657246 34.6362903,15.4167742 L35.2677419,17.601129 C35.2677419,17.6572581 35.4174194,17.8864516 35.6279032,17.8256452 C35.6995614,17.8068146 35.7604002,17.7594955 35.7962903,17.6946774 C35.832808,17.6273606 35.8412153,17.5483317 35.8196774,17.4748387 Z" id="Path" fill="#0086ff"></path>
                <path d="M37.611129,23.7004839 L37.611129,23.7004839 L36.975,21.4833871 C36.9298872,21.334526 36.7738542,21.249228 36.6241935,21.2916129 C36.5519503,21.3120411 36.491148,21.3610208 36.4558065,21.4272581 C36.4169284,21.4919518 36.4067589,21.5699176 36.4277419,21.6424194 L37.0591935,23.8267742 C37.0872581,23.8829032 37.2135484,24.1074194 37.4193548,24.0512903 C37.4916225,24.0306849 37.5526076,23.9819573 37.5886539,23.9160189 C37.6247002,23.8500806 37.6327962,23.7724404 37.611129,23.7004839 Z" id="Path" fill="#0086ff"></path>
                <path d="M39.4025806,29.9354839 L38.7664516,27.7183871 C38.7213388,27.569526 38.5653058,27.484228 38.4156452,27.5266129 C38.3426018,27.5454703 38.2812352,27.5949046 38.2472581,27.6622581 C38.20838,27.7269518 38.1982105,27.8049176 38.2191935,27.8774194 L38.8506452,30.0570968 C38.8787097,30.1179032 39.005,30.3424194 39.2108065,30.2862903 C39.2830497,30.2658621 39.343852,30.2168824 39.3791935,30.1506452 C39.4188784,30.0860669 39.4274639,30.0070804 39.4025806,29.9354839 L39.4025806,29.9354839 Z" id="Path" fill="#0086ff"></path>
                <path d="M38.046129,12.268871 C37.9726351,12.2891482 37.9103132,12.3379951 37.8730645,12.4045161 C37.8459449,12.4736729 37.8459449,12.5505207 37.8730645,12.6196774 L38.8085484,15.9359677 C38.9535484,16.2072581 38.9769355,16.2212903 39.206129,16.183871 L47.9201613,13.6767742 C47.9910156,13.6537204 48.0509372,13.6054502 48.0885484,13.541129 C48.118205,13.4724744 48.118205,13.3946224 48.0885484,13.3259677 L48.0885484,13.3259677 L47.1156452,9.94887097 C47.0952169,9.87662772 47.0462373,9.81582538 46.98,9.78048387 C46.9118657,9.74840884 46.832973,9.74840884 46.7648387,9.78048387 L38.046129,12.268871 Z M47.4851613,13.2043548 L39.2903226,15.5430645 L38.4764516,12.7085484 L46.6666129,10.3698387 L47.4851613,13.2043548 Z" id="Shape" fill="#0086ff"></path>
                <path d="M51.7930645,24.6266129 C51.75106,24.6051659 51.7045823,24.5939472 51.6574194,24.593871 C51.6310934,24.589509 51.6042291,24.589509 51.5779032,24.593871 L46.9004839,25.9362903 C46.7491016,25.9814916 46.6617536,26.1395498 46.7040323,26.2917742 C46.7256751,26.3643894 46.7753131,26.4254136 46.8419998,26.4613894 C46.9086866,26.4973651 46.9869447,26.5053375 47.0595161,26.4835484 L51.7369355,25.141129 C51.882044,25.0921104 51.9625631,24.937266 51.9193548,24.7903226 C51.897676,24.7226746 51.8529939,24.6647533 51.7930645,24.6266129 L51.7930645,24.6266129 Z" id="Path" fill="#0086ff"></path>
                <path d="M52.5975806,28.1440323 C52.7410882,28.0942319 52.8204169,27.940727 52.7780277,27.7948584 C52.7356385,27.6489898 52.5863956,27.5619074 52.4385484,27.5967742 L47.761129,28.9391935 C47.6888858,28.9596218 47.6280834,29.0086014 47.5927419,29.0748387 C47.5538638,29.1395325 47.5436944,29.2174983 47.5646774,29.29 C47.5841749,29.364213 47.6332085,29.4272065 47.7003671,29.4643204 C47.7675257,29.5014344 47.8469518,29.5094318 47.9201613,29.4864516 L52.5975806,28.1440323 Z" id="Path" fill="#0086ff"></path>
                <path d="M16.7545161,36.6569355 C16.7125116,36.6354885 16.6660339,36.6242698 16.618871,36.6241935 C16.5925451,36.6198316 16.5656808,36.6198316 16.5393548,36.6241935 L16.5393548,36.6241935 L9.95354839,38.5185484 C9.88130514,38.5389766 9.8205028,38.5879563 9.78516129,38.6541935 C9.74628319,38.7188873 9.73611374,38.7968531 9.75709677,38.8693548 C9.77774521,38.9428321 9.82697139,39.0049737 9.89377287,39.0418903 C9.96057434,39.0788069 10.0393816,39.0874207 10.1125806,39.0658065 L16.6937097,37.1714516 C16.767187,37.1508032 16.8293285,37.101577 16.8662451,37.0347755 C16.9031617,36.967974 16.9117755,36.8891668 16.8901613,36.8159677 C16.8651625,36.7485917 16.8171054,36.692249 16.7545161,36.6569355 L16.7545161,36.6569355 Z" id="Path" fill="#0086ff"></path>
                <path d="M49.9033871,45.8387097 C49.9790594,45.8387097 50.0516323,45.808649 50.1051406,45.7551406 C50.158649,45.7016323 50.1887097,45.6290594 50.1887097,45.5533871 L50.1887097,42.1903226 C50.1887097,42.0327433 50.0609664,41.905 49.9033871,41.905 L40.3146774,41.905 C40.2390052,41.905 40.1664323,41.9350607 40.1129239,41.988569 C40.0594155,42.0420774 40.0293548,42.1146503 40.0293548,42.1903226 L40.0293548,45.5533871 C40.0293548,45.7109664 40.1570981,45.8387097 40.3146774,45.8387097 L49.9033871,45.8387097 Z M40.5953226,42.4756452 L49.6227419,42.4756452 L49.6227419,45.2820968 L40.5953226,45.2820968 L40.5953226,42.4756452 Z" id="Shape" fill="#0086ff"></path>
                <path d="M36.0582258,43.4204839 L26.825,43.4204839 C26.715213,43.40634 26.6071524,43.456973 26.5477628,43.5503867 C26.4883731,43.6438004 26.4883731,43.7631351 26.5477628,43.8565488 C26.6071524,43.9499625 26.715213,44.0005955 26.825,43.9864516 L36.0582258,43.9864516 C36.1680129,44.0005955 36.2760734,43.9499625 36.335463,43.8565488 C36.3948527,43.7631351 36.3948527,43.6438004 36.335463,43.5503867 C36.2760734,43.456973 36.1680129,43.40634 36.0582258,43.4204839 L36.0582258,43.4204839 Z" id="Path" fill="#0086ff"></path>
                <rect id="Rectangle" fill="#0086ff" transform="translate(42.980641, 12.968499) rotate(-16.060000) translate(-42.980641, -12.968499) " x="38.7171735" y="11.4951121" width="8.52693548" height="2.94677419"></rect>
                <rect id="Rectangle" fill="#0086ff" transform="translate(33.209508, 33.745086) rotate(-16.060000) translate(-33.209508, -33.745086) " x="31.0017662" y="30.6041994" width="4.41548387" height="6.28177419"></rect>
                <rect id="Rectangle" fill="#0086ff" x="40.5953226" y="42.4803226" width="9.02274194" height="2.79709677"></rect>
            </g>
        </g>
    </g>
</svg>